<?xml version="1.0" encoding="utf-8"?>
<!-- Generator: Adobe Illustrator 23.0.3, SVG Export Plug-In . SVG Version: 6.00 Build 0)  -->
<svg version="1.1" id="Layer_1" xmlns="http://www.w3.org/2000/svg" xmlns:xlink="http://www.w3.org/1999/xlink" x="0px" y="0px"
	 viewBox="0 0 1200 1000" style="enable-background:new 0 0 1200 1000;" xml:space="preserve">
<style type="text/css">
	.st0{fill:#353539;}
	.st1{fill:#515055;}
	.st2{fill:#FDEF4D;}
	.st3{fill:#FDBB48;}
</style>
<g>
	<g>
		<g>
			<g>
				<path class="st0" d="M118.1,659.84c3.17-3.39,6.96-6.42,11.37-9.08c4.42-2.67,9.02-4.97,13.82-6.92
					c4.8-1.95,9.62-3.49,14.47-4.65c4.84-1.14,9.31-1.84,13.41-2.09c1.03-0.06,2.05-0.12,3.08-0.19c1.02-0.06,2,0.01,2.92,0.17
					c2.99,0.28,5.13,1.11,6.41,2.53c1.29,1.4,2,3.19,2.13,5.36c0.16,2.63-0.56,5.49-2.14,8.61c-1.59,3.12-3.6,6.22-6.05,9.28
					c-2.45,3.06-5.1,5.89-7.97,8.46c-2.87,2.57-5.53,4.51-7.97,5.8c-0.2,0.46,0.12,1.14,0.98,1.99c0.85,0.87,2.02,1.73,3.5,2.62
					c1.48,0.87,3.24,1.6,5.27,2.17c2.04,0.56,4.14,0.78,6.3,0.65c3.19-0.19,5.82-1.05,7.9-2.54l0.51-0.03
					c1.71-2.04,3.36-4.51,4.95-7.41c1.6-2.89,3.01-5.94,4.25-9.17c1.24-3.21,2.18-6.49,2.84-9.85c0.66-3.36,0.89-6.51,0.71-9.48
					c-0.15-2.5-0.66-4.87-1.54-7.11c-0.88-2.24-2.19-4.18-3.95-5.85c-1.75-1.67-4-2.95-6.74-3.88c-2.74-0.92-6.05-1.38-9.93-1.38
					c-6.62,0.06-13.39,0.89-20.32,2.51c-6.92,1.62-13.66,3.86-20.23,6.72c-6.57,2.85-12.78,6.23-18.66,10.12
					c-5.87,3.9-11.04,8.19-15.5,12.85c-4.46,4.66-8.04,9.62-10.75,14.88c-2.71,5.24-4.18,10.56-4.43,15.95
					c-0.13,3.44,0.4,6.69,1.61,9.77c1.21,3.07,2.87,6.02,4.99,8.87c2.11,2.84,4.59,5.61,7.43,8.3c2.85,2.69,5.72,5.36,8.62,8.05
					c2.54,2.36,5.09,4.76,7.63,7.17c2.54,2.41,4.8,4.92,6.79,7.47c1.98,2.57,3.66,5.26,5.03,8.1c1.36,2.83,2.15,5.91,2.35,9.21
					c0.36,6.03-0.42,11.58-2.34,16.61c-1.92,5.03-4.8,9.37-8.63,13.04c-3.83,3.65-8.48,6.59-13.94,8.81
					c-5.46,2.21-11.55,3.53-18.26,3.93c-3.87,0.23-7.78,0.17-11.74-0.16c-3.96-0.33-7.58-1.25-10.87-2.76
					c-3.29-1.52-6.05-3.72-8.28-6.62c-2.22-2.89-3.49-6.79-3.78-11.69c-0.21-3.42,0.24-6.39,1.35-8.91c1.1-2.52,2.56-4.81,4.39-6.86
					c1.82-2.05,3.94-3.86,6.36-5.45c2.42-1.57,4.78-3.12,7.09-4.63l3.8-2.46c0.18-0.69-0.79-1.6-2.91-2.73
					c-2.13-1.14-4.59-2.12-7.39-2.99c-2.79-0.86-5.43-1.47-7.91-1.84c-2.48-0.37-4.04-0.24-4.69,0.37l0.17-0.01
					c-7.92,6.2-13.29,12.17-16.11,17.95c-2.83,5.77-3.94,11.61-3.36,17.52c0.57,5.67,2.69,10.55,6.37,14.62
					c3.67,4.06,8.07,7.4,13.2,10c5.13,2.61,10.62,4.54,16.46,5.78c5.85,1.25,11.28,1.9,16.32,1.93c9.25-0.21,17.98-2.1,26.23-5.7
					c8.24-3.58,15.55-8.05,21.91-13.4c6.37-5.35,11.5-11.24,15.4-17.64c3.9-6.4,6.01-12.6,6.34-18.56
					c0.11-3.77-0.54-7.39-1.94-10.85c-1.41-3.46-3.24-6.81-5.49-10.04c-2.25-3.24-4.84-6.38-7.77-9.4
					c-2.93-3.02-5.91-5.99-8.94-8.89c-2.42-2.25-4.85-4.65-7.29-7.19c-2.44-2.53-4.68-5.17-6.73-7.91c-2.05-2.72-3.82-5.56-5.31-8.5
					c-1.49-2.94-2.5-6-3.04-9.17c-0.85-4.64-0.48-8.97,1.1-13.01C112.56,666.94,114.94,663.24,118.1,659.84z"/>
			</g>
			<g>
				<path class="st0" d="M282.11,830.57c-0.4-0.4-0.83-0.71-1.28-0.93h0.17c-3.99-2.74-7.99-5.43-11.98-8.05
					c-4-2.63-8.16-5.14-12.49-7.53c2.74-5.01,5.42-10.35,8.04-16c2.63-5.64,5.24-11.71,7.88-18.22l25.33-61.27
					c0.68-1.95,0.34-3.89-1.03-5.82c-1.36-1.94-3.13-3.59-5.3-4.97c-2.17-1.36-4.45-2.35-6.85-2.99c-2.4-0.61-4.28-0.6-5.65,0.1
					c-1.94,6.62-3.96,13.04-6.07,19.25c-2.11,6.23-4.19,12.13-6.25,17.72l-2.23,3.43h0.17c-1.94,3.3-4.08,6.73-6.42,10.26
					c-2.34,3.54-4.79,6.87-7.35,10.01c-2.57,3.13-5.28,5.93-8.13,8.38c-2.85,2.45-5.81,4.25-8.9,5.39h-1.36
					c-0.69,0-1.03-1.55-1.03-4.62c0-2.4,0.57-5.5,1.71-9.33c1.14-3.82,2.54-7.87,4.19-12.14c1.66-4.28,3.43-8.55,5.31-12.84
					c1.88-4.28,3.62-8.12,5.22-11.55l4.62-10.26c0.68-1.95,0.4-3.91-0.86-5.91c-1.25-2.01-2.88-3.7-4.87-5.14
					c-2-1.42-4.11-2.51-6.33-3.25c-2.23-0.75-4.03-0.78-5.4-0.1h-1.2c-1.14,4.35-2.51,8.82-4.1,13.44
					c-1.6,4.62-3.25,9.33-4.97,14.12c-1.02,2.67-2,5.41-2.98,8.17c-0.02,0.03-0.09,0.02-0.11,0.05c-0.57,0.91-1.14,1.8-1.71,2.65
					c-0.57,0.86-1.14,1.74-1.71,2.66h0.17c-1.94,3.3-4.07,6.73-6.41,10.26c-2.34,3.54-4.79,6.87-7.36,10.01
					c-2.57,3.13-5.28,5.93-8.13,8.38c-2.86,2.45-5.82,4.25-8.9,5.39h-1.37c-0.57-0.57-0.86-2.12-0.86-4.62
					c0-2.4,0.54-5.47,1.63-9.23c1.08-3.77,2.48-7.86,4.19-12.24c1.71-4.39,3.62-8.93,5.73-13.61c2.11-4.68,4.19-9.15,6.25-13.44
					c2.05-4.28,3.96-8.15,5.74-11.63c1.76-3.48,3.16-6.18,4.19-8.13l1.02-2.05l8.04-15.75c3.99-0.91,7.96-1.59,11.89-2.05
					c3.93-0.46,7.9-0.68,11.89-0.68c1.25,0,2.51,0.03,3.77,0.08c1.25,0.06,2.57,0.14,3.93,0.25c1.03,0.24,2.05,0.03,3.08-0.6
					c1.02-0.63,1.91-1.42,2.65-2.4c0.75-0.96,1.29-2.02,1.63-3.16c0.34-1.14,0.34-2.17,0-3.08c-1.14-0.11-2.54-0.21-4.19-0.26
					c-1.66-0.06-3.06-0.08-4.19-0.08c-8.68,0-17.28,0.85-25.84,2.56c1.48-2.97,2.74-5.61,3.76-7.95c1.03-2.34,1.77-4.08,2.23-5.22
					c0.68-1.94,0.34-3.87-1.03-5.82c-1.36-1.94-3.13-3.59-5.3-4.96c-2.17-1.36-4.45-2.34-6.85-2.91c-2.4-0.57-4.28-0.52-5.65,0.17
					c-2.63,9.71-7.08,21.28-13.35,34.75c-8.45,3.43-16.69,7.76-24.74,13.01c-0.79,0.57-1.25,1.17-1.36,1.8
					c-0.11,0.63,0.06,1.2,0.51,1.71c0.45,0.52,1.08,0.88,1.87,1.11c0.79,0.22,1.7,0.17,2.72-0.18h0.34c2.6-1.48,5.21-2.81,7.83-4.01
					c2.62-1.2,5.24-2.37,7.87-3.51l-4.97,9.92c-2.63,5.03-5.18,10.04-7.67,15.07c-2.49,5.01-4.78,10.07-6.88,15.14
					c-2.09,5.08-3.96,10.18-5.59,15.32c-1.64,5.14-2.86,10.26-3.65,15.4c-0.22,1.03-0.39,2.17-0.51,3.43
					c-0.11,1.25-0.17,2.34-0.17,3.25c0,4.35,1.04,7.99,3.13,10.96c2.1,2.97,5.46,4.55,10.1,4.79c2.26,0,4.41-0.26,6.46-0.78
					c2.04-0.52,3.89-1.14,5.55-1.88c1.65-0.74,3.11-1.56,4.36-2.48c1.26-0.92,2.28-1.71,3.08-2.4c2.63-2.17,5.13-4.6,7.53-7.27
					c2.32-2.61,4.53-5.33,6.64-8.13c-0.03,0.15-0.1,0.36-0.13,0.51c-0.45,2.17-0.68,4.44-0.68,6.84c0,4.35,1.11,7.97,3.34,10.88
					c2.23,2.91,5.56,4.47,10.01,4.71c2.28,0,4.45-0.26,6.5-0.78c2.05-0.52,3.91-1.14,5.56-1.88c1.66-0.74,3.11-1.56,4.37-2.48
					c1.25-0.92,2.28-1.71,3.08-2.4c1.6-1.25,3.14-2.67,4.62-4.28c1.48-1.6,2.97-3.2,4.45-4.79l-0.17,0.52
					c-4.56,11.06-9.58,21.73-15.06,31.99c-2.28-0.79-4.51-1.53-6.68-2.21c-2.17-0.7-4.45-1.27-6.85-1.71
					c-2.4-0.46-5.02-0.81-7.87-1.03c-2.86-0.24-6.05-0.35-9.59-0.35c-6.16,0-12.06,0.89-17.71,2.66
					c-5.65,1.77-10.61,4.22-14.89,7.35c-4.28,3.13-7.7,6.85-10.27,11.13c-2.57,4.28-3.85,8.93-3.85,13.94c0,3.77,0.94,6.94,2.83,9.5
					c1.88,2.58,4.34,4.65,7.35,6.25c3.03,1.6,6.42,2.76,10.19,3.51c3.76,0.74,7.59,1.11,11.46,1.11c6.5,0,12.47-0.65,17.88-1.98
					c5.42-1.31,10.38-3.25,14.9-5.81c4.51-2.58,8.67-5.74,12.49-9.5c3.82-3.77,7.38-8.05,10.7-12.84l10.95,7.7l7.01,4.96
					c0.8,0.46,2.37,0.52,4.71,0.18c2.34-0.35,4.62-0.92,6.85-1.71c2.23-0.81,3.93-1.74,5.13-2.83s1.11-2.14-0.26-3.16
					C282.93,831.28,282.5,830.97,282.11,830.57z M223.06,830.57c-3.25,4.16-6.64,7.73-10.18,10.7c-3.54,2.97-7.19,5.31-10.95,7.02
					c-3.76,1.71-7.64,2.56-11.64,2.56c-2.05,0-4.22-0.22-6.5-0.68c-2.28-0.46-4.36-1.25-6.25-2.4c-1.88-1.14-3.45-2.69-4.71-4.62
					c-1.25-1.94-1.88-4.44-1.88-7.52c-0.23-4,0.86-7.48,3.25-10.45c2.4-2.97,5.42-5.39,9.07-7.27c3.66-1.88,7.7-3.29,12.15-4.19
					c4.45-0.92,8.68-1.38,12.67-1.38c4.79,0.13,9.16,0.57,13.09,1.38c3.93,0.79,7.73,1.94,11.38,3.43
					C229.48,821.93,226.31,826.4,223.06,830.57z"/>
			</g>
			<g>
				<path class="st0" d="M486.36,704.52c1.14-0.79,1.31-1.85,0.51-3.16s-2.03-2.63-3.68-3.94c-1.66-1.31-3.51-2.53-5.56-3.68
					s-3.76-1.99-5.13-2.56c-4.57,3.98-8.04,7.47-10.44,10.43c-2.4,2.97-4.51,5.77-6.34,8.38c-0.57,0.92-1.14,1.77-1.71,2.58
					c-0.57,0.79-1.2,1.64-1.89,2.56c-3.65,4.79-7.04,9.55-10.18,14.29c-3.14,4.74-6.19,9.5-9.16,14.29
					c-0.57,1.14-1.28,2.31-2.14,3.51c-0.86,1.2-1.62,2.37-2.31,3.51c-2.97,2.28-5.42,5.22-7.35,8.82c-1.03,1.9-1.74,3.82-2.23,5.73
					c-2.66,3.22-5.42,6.09-8.3,8.64c-2.9,2.56-5.9,4.36-8.98,5.39h-1.54c-0.68,0-1.02-1.55-1.02-4.62c0-2.51,0.6-5.7,1.8-9.58
					c1.2-3.87,2.65-7.98,4.36-12.33c1.71-4.33,3.54-8.69,5.48-13.09c1.94-4.39,3.7-8.3,5.31-11.73c1.02-2.16,1.91-4.04,2.65-5.64
					c0.75-1.6,1.29-2.86,1.63-3.76c0.68-1.95,0.4-3.91-0.86-5.91c-1.25-2.01-2.91-3.7-4.97-5.14c-2.05-1.42-4.19-2.51-6.41-3.25
					c-2.23-0.75-4.03-0.78-5.39-0.1h-1.2c-1.14,4.35-2.54,8.94-4.2,13.79c-1.65,4.85-3.39,9.72-5.22,14.62
					c-0.57,1.6-1.14,3.2-1.71,4.79c-0.57,1.6-1.14,3.2-1.71,4.79c-0.34,0.57-0.71,1.09-1.11,1.55c-0.4,0.46-0.72,0.97-0.95,1.55
					h0.17c-1.94,3.3-4.08,6.73-6.42,10.26c-2.34,3.54-4.79,6.87-7.35,10.01c-2.57,3.13-5.28,5.93-8.13,8.38
					c-2.85,2.45-5.81,4.25-8.9,5.39h-1.36c-0.69,0-1.03-1.55-1.03-4.62c0-2.4,0.57-5.5,1.71-9.33c1.14-3.82,2.54-7.87,4.19-12.14
					c1.66-4.28,3.43-8.55,5.31-12.84c1.88-4.28,3.62-8.12,5.22-11.55l4.62-10.26c0.68-1.95,0.4-3.91-0.86-5.91
					c-1.25-2.01-2.88-3.7-4.87-5.14c-2-1.42-4.11-2.51-6.33-3.25c-2.23-0.75-4.03-0.78-5.4-0.1h-1.2c-1.14,4.35-2.51,8.82-4.1,13.44
					c-1.6,4.62-3.25,9.33-4.97,14.12c-1.02,2.67-2,5.41-2.98,8.17c-0.02,0.03-0.09,0.02-0.11,0.05c-0.57,0.91-1.14,1.8-1.71,2.65
					c-0.57,0.86-1.14,1.74-1.71,2.66h0.17c-1.94,3.3-4.07,6.73-6.41,10.26c-2.34,3.54-4.79,6.87-7.36,10.01
					c-2.57,3.13-5.28,5.93-8.13,8.38c-2.86,2.45-5.82,4.25-8.9,5.39h-1.37c-0.57-0.57-0.86-2.12-0.86-4.62
					c0-2.4,0.54-5.47,1.63-9.23c1.08-3.77,2.48-7.86,4.19-12.24c1.71-4.39,3.62-8.93,5.73-13.61c2.11-4.68,4.19-9.15,6.25-13.44
					c2.05-4.28,3.96-8.15,5.74-11.63c1.76-3.48,3.16-6.18,4.19-8.13l1.02-2.05c1.82-3.54,3.74-7.3,5.73-11.3
					c2-4,3.88-7.79,5.65-11.38c1.77-3.59,3.31-6.8,4.62-9.6c1.31-2.79,2.19-4.82,2.65-6.07c0.68-1.94,0.34-3.87-1.03-5.82
					c-1.36-1.94-3.13-3.59-5.3-4.96c-2.17-1.36-4.45-2.34-6.85-2.91c-2.4-0.57-4.28-0.52-5.65,0.17c-1.6,5.93-4.05,12.84-7.36,20.71
					c-3.31,7.88-6.85,15.7-10.61,23.45l-6.67,13.18c-4.89,9.58-9.45,19.22-13.7,28.93c-4.24,9.69-7.14,19.44-8.73,29.26
					c-0.22,1.03-0.39,2.17-0.51,3.43c-0.11,1.25-0.17,2.34-0.17,3.25c0,4.35,1.04,7.99,3.13,10.96c2.1,2.97,5.46,4.55,10.1,4.79
					c2.26,0,4.41-0.26,6.46-0.78c2.04-0.52,3.89-1.14,5.55-1.88c1.65-0.74,3.11-1.56,4.36-2.48c1.26-0.92,2.28-1.71,3.08-2.4
					c2.63-2.17,5.13-4.6,7.53-7.27c2.32-2.61,4.53-5.33,6.64-8.13c-0.03,0.15-0.1,0.36-0.13,0.51c-0.45,2.17-0.68,4.44-0.68,6.84
					c0,4.35,1.11,7.97,3.34,10.88c2.23,2.91,5.56,4.47,10.01,4.71c2.28,0,4.45-0.26,6.5-0.78s3.91-1.14,5.56-1.88
					c1.66-0.74,3.11-1.56,4.37-2.48s2.28-1.71,3.08-2.4c2.4-1.94,4.68-4.11,6.85-6.5c2.17-2.4,4.28-4.9,6.34-7.53
					c-0.34,1.95-0.52,3.89-0.52,5.82c0,4.35,1.11,7.99,3.34,10.96c2.23,2.97,5.62,4.55,10.19,4.79c2.28,0,4.45-0.26,6.5-0.78
					c2.05-0.52,3.91-1.14,5.56-1.88c1.65-0.74,3.11-1.56,4.37-2.48c1.25-0.92,2.28-1.71,3.08-2.4c2.33-2.04,4.48-4.24,6.58-6.48
					c0.99,2.75,2.48,5.38,4.89,7.76c4.11,4.05,10.56,6.42,19.35,7.1c4.22,0.22,8.15-0.25,11.8-1.45c3.65-1.2,6.79-2.99,9.42-5.4
					c2.63-2.4,4.62-5.32,5.99-8.8c1.37-3.48,2-7.28,1.88-11.38l-0.51-9.25c-0.23-2.28-0.4-4.57-0.52-6.85
					c-0.11-2.27-0.17-4.55-0.17-6.84c0-4.46,0.43-8.84,1.29-13.18c0.86-4.33,2.48-8.38,4.87-12.16l2.05-3.08
					c1.25-1.82,2.31-3.3,3.17-4.44c0.86-1.14,2.08-2.45,3.68-3.94H486.36z M452.48,774.09c-0.46,2.12-1.14,3.94-2.05,5.47
					c-0.92,1.55-2.12,2.77-3.59,3.68c-1.49,0.92-3.25,1.27-5.31,1.03c-1.6-0.11-3.37-0.71-5.31-1.8c-1.94-1.09-3.59-2.76-4.97-5.04
					c-0.46-0.81-0.83-1.71-1.11-2.74s-0.42-2.05-0.42-3.08c0-1.71,0.37-3.26,1.11-4.62c0.74-1.36,1.71-2.53,2.9-3.51
					c1.2-0.96,2.57-1.74,4.11-2.31c1.54-0.57,3.05-0.85,4.54-0.85c2.05,0,4.45,1.14,7.19,3.43c0.57-0.57,0.77-1.57,0.6-2.99
					c-0.17-1.43-0.52-2.94-1.03-4.54c-0.51-1.6-1.05-3.08-1.62-4.46c-0.57-1.36-1.03-2.21-1.37-2.56c-1.71-0.79-3.54-1.36-5.47-1.71
					l2.74-4.28c1.48-2.4,3.02-4.85,4.62-7.35c1.59-2.51,3.19-4.9,4.79-7.19c-0.58,2.28-0.97,4.47-1.2,6.59
					c-0.23,2.1-0.35,4.19-0.35,6.24c0,2.28,0.12,4.62,0.35,7.02c0.22,2.4,0.45,4.68,0.68,6.85c0.23,2.05,0.42,4.09,0.6,6.16
					c0.17,2.05,0.26,4.05,0.26,5.99C453.16,769.79,452.93,771.99,452.48,774.09z"/>
			</g>
			<g>
				<path class="st0" d="M630.86,695.39c4.11-3.52,7.67-7.63,10.7-12.3c3.02-4.68,5.1-10.04,6.25-16.09
					c0.23-1.02,0.4-2.05,0.52-3.08c0.11-1.02,0.17-2.05,0.17-3.08c0-3.98-0.79-7.8-2.4-11.45c-1.59-3.65-3.96-6.87-7.1-9.67
					c-3.13-2.79-7.01-5.01-11.64-6.66c-4.62-1.66-9.9-2.48-15.83-2.48h-0.17c-9.13,0.43-17.91,1.98-26.35,4.61
					c-8.45,2.63-16.43,6.17-23.96,10.61c-7.53,4.46-14.55,9.61-21.05,15.49c-6.5,5.88-12.44,12.24-17.8,19.08
					c-5.36,6.85-10.07,13.98-14.12,21.39c-4.05,7.42-7.39,14.89-10.01,22.42c-0.68,1.95-1.02,3.54-1.02,4.79
					c0,2.97,0.97,5.85,2.9,8.65c1.94,2.8,4.05,5.04,6.34,6.75c2.28,1.71,4.33,2.77,6.16,3.16c1.82,0.4,2.67-0.31,2.56-2.13
					c-0.34-4.68,0.75-10.59,3.25-17.72c2.51-7.13,6.1-14.67,10.78-22.59c4.68-7.92,10.19-15.89,16.52-23.87
					c6.33-7.98,13.15-15.21,20.45-21.66c7.3-6.43,14.89-11.74,22.76-15.91c7.88-4.16,15.63-6.36,23.28-6.59
					c3.08-0.13,5.7,0.33,7.87,1.36s3.88,2.42,5.14,4.19c1.25,1.77,2.17,3.84,2.74,6.24c0.57,2.4,0.86,4.86,0.86,7.37
					c0,1.94-0.15,3.9-0.43,5.91c-0.29,1.99-0.71,3.96-1.28,5.91c-1.94,6.27-4.88,11.81-8.82,16.6c-3.93,4.79-8.15,8.87-12.66,12.23
					c-4.51,3.37-8.9,6.04-13.18,8.05c-4.28,1.99-7.67,3.33-10.18,4.01c-0.68,0.35-1.09,0.78-1.2,1.3c-0.12,0.52,0,1.02,0.34,1.53
					s0.86,0.97,1.54,1.38c0.69,0.39,1.43,0.6,2.23,0.6c0.57,0,1.02-0.06,1.36-0.18c0.91,0.24,1.66,0.29,2.23,0.18
					c2.17-0.13,4.39,0.6,6.67,2.13c2.28,1.55,4.34,3.65,6.16,6.34c1.82,2.67,3.34,5.85,4.53,9.5c1.2,3.65,1.8,7.41,1.8,11.3
					c0.11,8.79-1.77,16.69-5.65,23.7c-3.88,7.01-9.07,13.01-15.57,17.97s-13.98,8.79-22.42,11.46c-8.44,2.69-17.05,4.03-25.84,4.03
					c-4.33,0-8.41-0.57-12.24-1.71c-3.82-1.14-7.19-2.72-10.1-4.71c-2.9-1.99-5.22-4.33-6.93-7.02c-1.71-2.67-2.57-5.5-2.57-8.47
					c0-3.08,0.91-6.18,2.74-9.33c1.82-3.13,4.9-6.13,9.24-8.98c-0.23-0.68-1.52-1.36-3.85-2.05c-2.34-0.68-4.88-1.23-7.62-1.63
					c-2.74-0.39-5.28-0.65-7.62-0.77c-2.33-0.11-3.61,0-3.85,0.33h0.35c-3.88,3.66-6.65,7.13-8.3,10.45
					c-1.66,3.31-2.49,6.45-2.49,9.42c0,4.44,1.46,8.61,4.37,12.49c2.91,3.87,6.82,7.24,11.72,10.1c4.91,2.84,10.5,5.1,16.78,6.75
					c6.27,1.66,12.83,2.53,19.68,2.66c12.89,0.11,24.99-1.46,36.28-4.71c11.3-3.25,21.14-7.81,29.53-13.68
					c8.38-5.86,14.97-12.83,19.76-20.86c4.79-8.04,7.19-16.84,7.19-26.41c-0.34-3.2-1.36-6.42-3.08-9.67
					c-1.71-3.25-3.85-6.3-6.42-9.15c-2.56-2.84-5.42-5.4-8.55-7.69c-3.14-2.28-6.36-4.05-9.67-5.31c4.9-1.48,9.81-3.44,14.72-5.89
					C622.25,701.92,626.75,698.92,630.86,695.39z"/>
			</g>
			<g>
				<path class="st0" d="M542.55,784.54c1.48,0.85,2.45,0.82,2.91-0.1c3.42-9.58,7.24-19.47,11.46-29.68
					c4.22-10.22,8.75-20.54,13.61-30.99c4.85-10.43,9.95-20.79,15.32-31.06c5.36-10.26,10.95-20.2,16.77-29.78
					c0.79-2.17,0.4-4.42-1.2-6.75c-1.6-2.34-3.54-4.35-5.82-5.99c-2.28-1.66-4.53-2.86-6.75-3.59c-2.23-0.75-3.57-0.72-4.03,0.08
					h-0.17c-3.2,5.81-6.5,12.09-9.93,18.82c-3.42,6.74-6.85,13.72-10.26,20.98c-3.43,7.24-6.73,14.62-9.93,22.16
					c-3.2,7.53-6.22,14.92-9.07,22.16c-2.86,7.26-5.39,14.26-7.62,21.06c-2.22,6.78-4.08,13.09-5.56,18.9
					c-0.23,1.14,0.26,2.66,1.46,4.54c1.2,1.88,2.6,3.68,4.19,5.39C539.53,782.39,541.07,783.67,542.55,784.54z"/>
			</g>
			<g>
				<path class="st0" d="M1165.51,701.36c-0.81-1.31-2.03-2.63-3.69-3.94c-1.64-1.31-3.5-2.53-5.56-3.68
					c-2.05-1.14-3.76-1.99-5.14-2.56c-4.55,3.98-8.04,7.47-10.43,10.43c-2.4,2.97-4.51,5.77-6.34,8.38
					c-0.57,0.92-1.14,1.77-1.71,2.58c-0.57,0.79-1.2,1.64-1.88,2.56c-3.65,4.79-7.05,9.55-10.18,14.29
					c-3.13,4.74-6.18,9.5-9.15,14.29c-0.57,1.14-1.3,2.31-2.14,3.51c-0.85,1.2-1.63,2.37-2.31,3.51c-2.97,2.28-5.42,5.22-7.35,8.82
					c-1.08,2-1.78,4.01-2.26,6.02c-2.57,3.16-5.24,5.99-8.02,8.44c-2.86,2.51-5.82,4.28-8.9,5.31h-1.55
					c-0.33-0.35-0.52-1.71-0.52-4.11c0-1.6,0.26-3.45,0.78-5.56c0.52-2.12,1.13-4.32,1.88-6.6c0.74-2.27,1.56-4.55,2.48-6.84
					c0.91-2.28,1.82-4.46,2.74-6.5c0.33-0.91,0.71-1.8,1.1-2.65c0.4-0.86,0.72-1.63,0.95-2.31c0.57-1.95,0.22-3.91-1.03-5.91
					c-1.25-1.99-2.88-3.73-4.87-5.22c-1.99-1.48-4.11-2.59-6.34-3.34c-2.21-0.74-4.01-0.77-5.39-0.08h-1.2
					c-0.22,2.63-0.79,5.54-1.7,8.73c-0.92,3.19-2.01,6.45-3.26,9.75c-1.49,2.4-3.4,5.14-5.74,8.22s-4.76,6.04-7.27,8.9
					s-4.96,5.33-7.35,7.45c-2.4,2.1-4.4,3.33-5.99,3.68c-2.06,0.46-3.72,0.49-4.97,0.08c-1.25-0.4-2.28-1.11-3.08-2.14
					c-0.79-1.02-1.34-2.24-1.63-3.68c-0.28-1.42-0.42-2.94-0.42-4.53c0-1.82,0.17-3.66,0.52-5.49c0.33-1.82,0.68-3.41,1.02-4.79
					c0.81-2.84,1.88-5.96,3.26-9.32c1.36-3.37,2.99-6.74,4.87-10.1c1.88-3.37,3.97-6.6,6.24-9.68c2.28-3.08,4.74-5.81,7.37-8.22
					c2.62-2.4,5.33-4.3,8.13-5.72c2.79-1.43,5.67-2.09,8.64-1.96c1.71,0.11,3.11,0.63,4.19,1.53c1.09,0.92,1.91,2.03,2.48,3.34
					s0.97,2.73,1.2,4.28c0.24,1.55,0.4,2.94,0.52,4.19c0,0.46,0.06,0.89,0.17,1.28c0.13,0.4,0.18,0.84,0.18,1.28
					c0,0.92,0.45,1.6,1.36,2.06c0.92,0.46,1.94,0.65,3.08,0.6c1.14-0.06,2.2-0.32,3.18-0.78c0.96-0.45,1.45-1.07,1.45-1.88
					c0.11-2.4,0.03-4.79-0.25-7.19c-0.29-2.4-0.89-4.64-1.8-6.75c-0.92-2.12-2.2-3.97-3.86-5.57c-1.66-1.59-3.73-2.73-6.24-3.41
					c-2.74-0.68-5.65-1.03-8.73-1.03c-4.9,0-9.67,0.95-14.29,2.83c-4.62,1.88-9.04,4.39-13.26,7.52
					c-4.23,3.15-8.13,6.74-11.73,10.79c-3.59,4.04-6.74,8.23-9.42,12.58c-2.69,4.33-4.9,8.66-6.67,13.01
					c-0.17,0.41-0.26,0.79-0.41,1.19c-0.7,1.08-1.33,2.19-2.05,3.25c-4.57,6.85-9.08,12.24-13.52,16.17
					c-4.46,3.94-8.16,6.66-11.13,8.13c-1.25,0.35-2.08,0.24-2.48-0.35c-0.4-0.56-0.54-1.13-0.43-1.7c0.24-3.2,0.6-6.11,1.11-8.73
					c0.52-2.63,1.2-5.17,2.06-7.62c0.85-2.45,1.82-4.93,2.91-7.44c1.07-2.52,2.24-5.25,3.5-8.22c1.49-3.31,3.23-7.28,5.22-11.89
					c2.01-4.62,3.97-9.55,5.91-14.81c0.35-1.25,0.14-2.69-0.6-4.28c-0.74-1.6-1.77-3.12-3.08-4.54s-2.77-2.62-4.36-3.59
					c-1.6-0.97-3.09-1.46-4.46-1.46c-5.25,0.35-10.26,1.92-15.06,4.71c-4.79,2.8-9.3,6.2-13.52,10.18c0.11-0.11,0.17-0.28,0.17-0.5
					h-0.17c0.68-1.95,0.35-3.89-1.03-5.82c-1.36-1.94-3.13-3.59-5.31-4.97c-2.16-1.36-4.44-2.35-6.84-2.99
					c-2.4-0.61-4.28-0.6-5.65,0.1c-1.36,5.01-2.81,9.64-4.36,13.86s-3.11,8.33-4.71,12.33c-1.37,3.67-2.56,7.27-3.86,10.91
					c-0.05,0.1-0.12,0.2-0.17,0.3c-0.4,0.74-0.89,1.5-1.46,2.3c-2.05,3.31-4.25,6.8-6.59,10.45s-4.82,7.1-7.44,10.35
					c-2.63,3.26-5.38,6.14-8.22,8.65c-2.86,2.51-5.82,4.28-8.9,5.31h-1.55c-0.33-0.35-0.52-1.71-0.52-4.11
					c0-1.6,0.26-3.45,0.78-5.56c0.52-2.12,1.13-4.32,1.88-6.6c0.74-2.27,1.56-4.55,2.48-6.84c0.91-2.28,1.82-4.46,2.74-6.5
					c0.33-0.91,0.71-1.8,1.1-2.65c0.4-0.86,0.72-1.63,0.95-2.31c0.57-1.95,0.22-3.91-1.03-5.91c-1.25-1.99-2.88-3.73-4.87-5.22
					c-1.99-1.48-4.11-2.59-6.34-3.34c-2.21-0.74-4.01-0.77-5.39-0.08h-1.2c-0.22,2.63-0.79,5.54-1.7,8.73
					c-0.92,3.19-2.01,6.45-3.26,9.75c-1.49,2.4-3.4,5.14-5.74,8.22s-4.76,6.04-7.27,8.9c-2.51,2.86-4.96,5.33-7.35,7.45
					c-2.4,2.1-4.4,3.33-5.99,3.68c-2.06,0.46-3.72,0.49-4.97,0.08c-1.25-0.4-2.28-1.11-3.08-2.14c-0.79-1.02-1.34-2.24-1.63-3.68
					c-0.28-1.42-0.42-2.94-0.42-4.53c0-1.82,0.17-3.66,0.52-5.49c0.33-1.82,0.68-3.41,1.02-4.79c0.81-2.84,1.88-5.96,3.26-9.32
					c1.36-3.37,2.99-6.74,4.87-10.1c1.88-3.37,3.97-6.6,6.24-9.68c2.28-3.08,4.74-5.81,7.37-8.22c2.62-2.4,5.33-4.3,8.13-5.72
					c2.79-1.43,5.67-2.09,8.64-1.96c1.71,0.11,3.11,0.63,4.19,1.53c1.09,0.92,1.91,2.03,2.48,3.34s0.97,2.73,1.2,4.28
					c0.24,1.55,0.4,2.94,0.52,4.19c0,0.46,0.06,0.89,0.17,1.28c0.13,0.4,0.18,0.84,0.18,1.28c0,0.92,0.45,1.6,1.36,2.06
					c0.92,0.46,1.94,0.65,3.08,0.6c1.14-0.06,2.2-0.32,3.18-0.78c0.96-0.45,1.45-1.07,1.45-1.88c0.11-2.4,0.03-4.79-0.25-7.19
					c-0.29-2.4-0.89-4.64-1.8-6.75c-0.92-2.12-2.2-3.97-3.86-5.57c-1.66-1.59-3.73-2.73-6.24-3.41c-2.74-0.68-5.65-1.03-8.73-1.03
					c-4.9,0-9.67,0.95-14.29,2.83s-9.04,4.39-13.26,7.52c-4.23,3.15-8.13,6.74-11.73,10.79c-3.59,4.04-6.74,8.23-9.42,12.58
					c-2.69,4.33-4.9,8.66-6.67,13.01c-0.17,0.41-0.26,0.79-0.41,1.19c-0.7,1.08-1.34,2.19-2.05,3.25
					c-4.57,6.85-9.08,12.24-13.54,16.17c-4.44,3.94-8.16,6.66-11.11,8.13c-1.25,0.35-2.09,0.24-2.48-0.35
					c-0.4-0.56-0.55-1.13-0.43-1.7c0.22-3.2,0.6-6.11,1.1-8.73c0.53-2.63,1.2-5.17,2.06-7.62c0.86-2.45,1.82-4.93,2.91-7.44
					c1.09-2.52,2.24-5.25,3.51-8.22c1.49-3.31,3.22-7.28,5.22-11.89c2.01-4.62,3.96-9.55,5.91-14.81c0.33-1.25,0.14-2.69-0.61-4.28
					c-0.72-1.6-1.75-3.12-3.06-4.54s-2.79-2.62-4.37-3.59c-1.59-0.97-3.08-1.46-4.46-1.46c-5.24,0.35-10.26,1.92-15.05,4.71
					c-4.79,2.8-9.3,6.2-13.52,10.18c0.11-0.11,0.17-0.28,0.17-0.5h-0.17c0.68-1.95,0.34-3.89-1.02-5.82
					c-1.37-1.94-3.14-3.59-5.31-4.97c-2.17-1.36-4.45-2.35-6.85-2.99c-2.4-0.61-4.28-0.6-5.65,0.1c-1.37,5.01-2.83,9.64-4.37,13.86
					s-3.11,8.33-4.71,12.33c-1.37,3.67-2.56,7.27-3.86,10.91c-0.05,0.1-0.11,0.2-0.17,0.3c-0.4,0.74-0.88,1.5-1.46,2.3
					c-2.05,3.31-4.25,6.8-6.59,10.45s-4.82,7.1-7.44,10.35c-2.63,3.26-5.36,6.14-8.21,8.65c-2.86,2.51-5.82,4.28-8.9,5.31h-1.55
					c-0.34-0.35-0.51-1.71-0.51-4.11c0-1.6,0.26-3.45,0.77-5.56c0.52-2.12,1.14-4.32,1.89-6.6c0.74-2.27,1.57-4.55,2.48-6.84
					c0.91-2.28,1.82-4.46,2.74-6.5c0.34-0.91,0.71-1.8,1.11-2.65c0.4-0.86,0.71-1.63,0.94-2.31c0.57-1.95,0.23-3.91-1.02-5.91
					c-1.26-1.99-2.88-3.73-4.88-5.22c-2-1.48-4.11-2.59-6.33-3.34c-2.23-0.74-4.03-0.77-5.39-0.08h-1.2
					c-0.23,2.63-0.8,5.54-1.71,8.73c-0.91,3.19-2,6.45-3.25,9.75c-1.48,2.4-3.4,5.14-5.73,8.22c-2.34,3.08-4.77,6.04-7.28,8.9
					s-4.96,5.33-7.35,7.45c-2.4,2.1-4.39,3.33-6,3.68c-2.05,0.46-3.7,0.49-4.96,0.08c-1.26-0.4-2.28-1.11-3.08-2.14
					c-0.8-1.02-1.34-2.24-1.62-3.68c-0.29-1.42-0.43-2.94-0.43-4.53c0-1.82,0.17-3.66,0.52-5.49s0.68-3.41,1.03-4.79
					c0.79-2.84,1.88-5.96,3.25-9.32c1.36-3.37,2.99-6.74,4.87-10.1c1.88-3.37,3.96-6.6,6.25-9.68s4.74-5.81,7.36-8.22
					c2.62-2.4,5.33-4.3,8.13-5.72c2.79-1.43,5.68-2.09,8.64-1.96c1.71,0.11,3.11,0.63,4.19,1.53c1.09,0.92,1.91,2.03,2.49,3.34
					c0.56,1.31,0.97,2.73,1.2,4.28c0.22,1.55,0.4,2.94,0.51,4.19c0,0.46,0.06,0.89,0.17,1.28c0.11,0.4,0.17,0.84,0.17,1.28
					c0,0.92,0.45,1.6,1.36,2.06c0.91,0.46,1.94,0.65,3.08,0.6c1.14-0.06,2.19-0.32,3.16-0.78c0.97-0.45,1.46-1.07,1.46-1.88
					c0.11-2.4,0.03-4.79-0.26-7.19s-0.88-4.64-1.8-6.75c-0.91-2.12-2.19-3.97-3.85-5.57c-1.65-1.59-3.74-2.73-6.25-3.41
					c-2.74-0.68-5.65-1.03-8.73-1.03c-4.91,0-9.67,0.95-14.29,2.83c-4.62,1.88-9.05,4.39-13.27,7.52
					c-4.22,3.15-8.13,6.74-11.72,10.79c-3.59,4.04-6.73,8.23-9.42,12.58c-2.68,4.33-4.91,8.66-6.68,13.01
					c-1.76,4.33-2.88,8.33-3.34,11.98c-0.11,0.68-0.2,1.48-0.26,2.4c-0.06,0.91-0.08,1.82-0.08,2.73c0,2.28,0.34,4.65,1.03,7.1
					c0.68,2.47,1.82,4.74,3.42,6.85c1.59,2.12,3.8,3.97,6.59,5.56c2.8,1.6,6.25,2.58,10.36,2.91c2.51,0,5.02-0.49,7.53-1.45
					c2.51-0.97,4.99-2.26,7.44-3.86c2.46-1.59,4.85-3.43,7.19-5.47c2.33-2.05,4.59-4.22,6.75-6.5v2.4c0,4.11,1.26,7.65,3.77,10.61
					c2.51,2.97,6.56,4.68,12.15,5.14c2.4,0.11,4.59-0.1,6.59-0.6c2-0.52,3.8-1.17,5.39-1.98c1.6-0.79,3.02-1.64,4.28-2.56
					c1.25-0.92,2.28-1.71,3.08-2.4c5.03-4.31,9.41-9.12,13.34-14.3c-0.87,4.4-1.46,8.82-1.69,13.27c0.11,1.14,1.02,2.34,2.74,3.59
					c1.71,1.25,3.53,2.31,5.47,3.18c1.94,0.85,3.77,1.39,5.48,1.62c1.71,0.24,2.62-0.17,2.74-1.2c0.57-7.52,1.88-14.83,3.93-21.91
					c2.05-7.06,4.56-13.97,7.53-20.7c3.53-4.35,6.96-8.3,10.26-11.89c3.31-3.61,6.96-7.16,10.95-10.7c3.31-2.97,5.68-4.65,7.1-5.06
					c1.43-0.4,2.14-0.03,2.14,1.11c0,1.6-0.31,3.4-0.94,5.39c-0.63,1.99-1.4,4.14-2.31,6.42c-2.05,4.79-3.85,9.12-5.39,13.01
					c-1.54,3.87-2.88,7.44-4.03,10.7c-1.14,3.25-2.05,6.3-2.74,9.15c-0.68,2.86-1.09,5.71-1.2,8.55c-0.11,2.98,0.29,5.54,1.2,7.7
					c0.91,2.17,2.17,3.94,3.77,5.31c1.59,1.38,3.42,2.4,5.47,3.09c2.05,0.68,4.22,1.02,6.5,1.02c3.89,0,7.73-1.23,11.55-3.68
					c3.83-2.45,7.47-5.39,10.86-8.82c2.82-2.81,5.27-5.8,7.62-8.82c0.13,1.74,0.25,3.48,0.76,5.31c0.68,2.47,1.82,4.74,3.43,6.85
					s3.79,3.97,6.59,5.56c2.8,1.6,6.25,2.58,10.36,2.91c2.51,0,5.01-0.49,7.52-1.45c2.51-0.97,4.99-2.26,7.45-3.86
					c2.45-1.59,4.85-3.43,7.19-5.47s4.6-4.22,6.75-6.5v2.4c0,4.11,1.25,7.65,3.77,10.61c2.51,2.97,6.56,4.68,12.14,5.14
					c2.4,0.11,4.6-0.1,6.59-0.6c1.99-0.52,3.79-1.17,5.39-1.98c1.6-0.79,3.02-1.64,4.28-2.56s2.28-1.71,3.09-2.4
					c5.03-4.31,9.42-9.13,13.34-14.32c-0.87,4.41-1.46,8.84-1.7,13.29c0.11,1.14,1.03,2.34,2.73,3.59c1.71,1.25,3.54,2.31,5.49,3.18
					c1.94,0.85,3.76,1.39,5.47,1.62c1.71,0.24,2.62-0.17,2.73-1.2c0.57-7.52,1.89-14.83,3.94-21.91c2.06-7.06,4.57-13.97,7.53-20.7
					c3.54-4.35,6.95-8.3,10.26-11.89c3.31-3.61,6.96-7.16,10.95-10.7c3.31-2.97,5.68-4.65,7.1-5.06c1.43-0.4,2.14-0.03,2.14,1.11
					c0,1.6-0.32,3.4-0.95,5.39c-0.63,1.99-1.39,4.14-2.3,6.42c-2.06,4.79-3.86,9.12-5.4,13.01c-1.53,3.87-2.87,7.44-4.01,10.7
					c-1.14,3.25-2.06,6.3-2.74,9.15s-1.09,5.71-1.2,8.55c-0.11,2.98,0.28,5.54,1.2,7.7c0.92,2.17,2.17,3.94,3.76,5.31
					c1.6,1.38,3.43,2.4,5.49,3.09c2.05,0.68,4.22,1.02,6.5,1.02c3.87,0,7.72-1.23,11.55-3.68c3.82-2.45,7.45-5.39,10.86-8.82
					c2.82-2.81,5.26-5.79,7.61-8.8c0.13,1.73,0.25,3.47,0.76,5.3c0.68,2.47,1.82,4.74,3.43,6.85s3.79,3.97,6.59,5.56
					c2.8,1.6,6.25,2.58,10.36,2.91c2.51,0,5.01-0.49,7.52-1.45c2.51-0.97,4.99-2.26,7.45-3.86c2.45-1.59,4.85-3.43,7.19-5.47
					c2.34-2.05,4.6-4.22,6.76-6.5v2.4c0,4.11,1.25,7.65,3.77,10.61c2.51,2.97,6.56,4.68,12.14,5.14c2.4,0.11,4.6-0.1,6.59-0.6
					c1.99-0.52,3.79-1.17,5.39-1.98c1.6-0.79,3.02-1.64,4.28-2.56c1.25-0.92,2.28-1.71,3.09-2.4c2.29-1.97,4.4-4.09,6.46-6.24
					c1,2.66,2.49,5.2,4.84,7.52c4.11,4.05,10.56,6.42,19.35,7.1c4.22,0.22,8.15-0.25,11.81-1.45c3.65-1.2,6.78-2.99,9.4-5.4
					c2.63-2.4,4.62-5.32,6-8.8c1.36-3.48,1.99-7.28,1.88-11.38l-0.52-9.25c-0.24-2.28-0.4-4.57-0.52-6.85
					c-0.11-2.27-0.17-4.55-0.17-6.84c0-4.46,0.42-8.84,1.28-13.18c0.85-4.33,2.48-8.38,4.87-12.16l2.06-3.08
					c1.25-1.82,2.3-3.3,3.16-4.44c0.85-1.14,2.08-2.45,3.68-3.94h-0.17C1166.14,703.73,1166.3,702.67,1165.51,701.36z
					 M1131.11,774.09c-0.46,2.12-1.14,3.94-2.06,5.47c-0.91,1.55-2.1,2.77-3.59,3.68c-1.48,0.92-3.25,1.27-5.31,1.03
					c-1.59-0.11-3.36-0.71-5.31-1.8c-1.94-1.09-3.59-2.76-4.96-5.04c-0.46-0.81-0.82-1.71-1.11-2.74c-0.28-1.03-0.43-2.05-0.43-3.08
					c0-1.71,0.38-3.26,1.11-4.62c0.75-1.36,1.71-2.53,2.91-3.51c1.2-0.96,2.58-1.74,4.11-2.31c1.55-0.57,3.05-0.85,4.54-0.85
					c2.05,0,4.44,1.14,7.19,3.43c0.57-0.57,0.77-1.57,0.6-2.99c-0.17-1.43-0.52-2.94-1.03-4.54c-0.52-1.6-1.06-3.08-1.63-4.46
					c-0.57-1.36-1.02-2.21-1.36-2.56c-1.71-0.79-3.54-1.36-5.47-1.71l2.73-4.28c1.49-2.4,3.02-4.85,4.62-7.35
					c1.6-2.51,3.2-4.9,4.79-7.19c-0.57,2.28-0.96,4.47-1.2,6.59c-0.22,2.1-0.33,4.19-0.33,6.24c0,2.28,0.11,4.62,0.33,7.02
					c0.24,2.4,0.46,4.68,0.68,6.85c0.24,2.05,0.43,4.09,0.6,6.16c0.18,2.05,0.26,4.05,0.26,5.99
					C1131.79,769.79,1131.55,771.99,1131.11,774.09z"/>
			</g>
		</g>
	</g>
	<g>
		<g>
			<g>
				<path class="st0" d="M883.7,298.72c-49.41-58.27-118.36-91.17-193.99-92.5c-175.54-3.16-343.55,161.58-373.41,367.46
					c-2.67,18.21-4.13,36.3-4.49,54.14h12.14c0.36-17.24,1.82-34.72,4.37-52.32c28.77-198.24,187.92-357.26,356.17-357.26
					c1.58,0,3.28,0,4.98,0.12c72.11,1.34,137.9,32.66,185,88.13c48.07,56.69,73.81,133.78,73.81,217.54
					c0,20.15-1.46,40.67-4.49,61.3c-2.06,14.45-4.86,28.53-8.38,42.49h12.5c3.28-13.35,5.95-26.95,7.89-40.67
					C971.83,476.68,945.61,371.56,883.7,298.72z"/>
			</g>
		</g>
	</g>
	<g>
		<g>
			<path class="st1" d="M282.37,493.16l8.57,2.68c1.06,0.33,1.75,1.17,1.89,2.17c0.47,2.88,0.44,6.02-0.59,9.3
				c-2.48,7.93-9.77,11.49-17.66,9.02c-8.19-2.56-11.77-10.07-9.48-17.39c1.33-4.27,3.4-6.64,5.66-8.55
				c0.3-0.28,0.92-0.54,1.59-0.33c0.79,0.25,1.36,1.09,1.05,2.07c-0.09,0.3-0.25,0.54-0.43,0.74c-2.02,1.81-3.52,3.83-4.43,6.74
				c-1.78,5.7,0.51,11.23,7.11,13.29c5.81,1.82,11.45-0.56,13.48-7.05c0.83-2.64,0.81-5.1,0.41-7.13l-6.83-2.14l-1.95,6.23
				c-0.27,0.87-1.16,1.33-2.03,1.06c-0.87-0.27-1.33-1.17-1.06-2.03l2.33-7.44C280.31,493.39,281.35,492.84,282.37,493.16z"/>
			<path class="st1" d="M299.57,447.08c7.58,3.29,11.06,10.44,7.87,18.23c-3.21,7.83-10.7,10.44-18.4,7.45
				c-7.59-3.29-11.08-10.4-7.87-18.23C284.36,446.74,291.86,444.09,299.57,447.08z M298.2,450.41c-5.64-2.31-11.45-0.64-13.93,5.4
				c-2.49,6.07,0.49,11.31,6.12,13.62c5.63,2.31,11.44,0.67,13.93-5.4C306.8,458,303.84,452.72,298.2,450.41z"/>
			<path class="st1" d="M299.68,418.55l21.86,10.74c0.88,0.43,1.23,1.53,0.79,2.41c-0.43,0.89-1.49,1.25-2.38,0.81l-21.86-10.74
				c-0.89-0.43-1.28-1.51-0.85-2.39C297.68,418.49,298.79,418.11,299.68,418.55z"/>
			<path class="st1" d="M323.11,375.7l20.41,11.82c1.23,0.71,1.63,2.31,0.92,3.54l-0.24,0.41c-0.44,0.75-1.19,1.19-1.98,1.28
				l-26.78,2.16l18.5,10.71c0.86,0.5,1.12,1.61,0.63,2.46c-0.49,0.86-1.57,1.14-2.43,0.65l-20.41-11.82
				c-1.23-0.71-1.68-2.3-0.97-3.53l0.26-0.45c0.43-0.75,1.22-1.16,2.11-1.28l26.63-2.15l-18.46-10.69
				c-0.86-0.49-1.18-1.59-0.68-2.45C321.13,375.51,322.26,375.2,323.11,375.7z"/>
			<path class="st1" d="M360.24,343.24l7.34,5.16c0.9,0.64,1.31,1.64,1.14,2.64c-0.43,2.88-1.42,5.86-3.4,8.68
				c-4.77,6.79-12.8,7.96-19.55,3.21c-7.02-4.93-8.14-13.16-3.73-19.43c2.57-3.65,5.26-5.29,7.99-6.41
				c0.36-0.18,1.03-0.24,1.62,0.17c0.68,0.48,0.96,1.45,0.37,2.29c-0.18,0.26-0.4,0.44-0.64,0.57c-2.47,1.11-4.51,2.57-6.26,5.06
				c-3.43,4.88-2.94,10.84,2.72,14.81c4.98,3.5,11.07,2.95,14.98-2.61c1.59-2.26,2.32-4.6,2.55-6.66l-5.85-4.11l-3.75,5.33
				c-0.52,0.74-1.51,0.92-2.26,0.4c-0.74-0.52-0.92-1.51-0.4-2.26l4.48-6.37C358.21,342.83,359.37,342.63,360.24,343.24z"/>
			<path class="st1" d="M410.04,292.92c3.39,3.15,3.74,7.36-1.24,12.71l-6.51,7.01c-0.67,0.72-1.79,0.76-2.52,0.09L382.2,296.4
				c-0.72-0.67-0.79-1.82-0.12-2.54l6.35-6.83c3.93-4.23,8.14-4.52,11.27-1.61c2.4,2.23,2.53,4.89,1.82,6.98
				C404.12,290.92,407.38,290.44,410.04,292.92z M390.7,289.51l-4.92,5.3l6.28,5.84l4.47-4.81c3.39-3.65,2.91-5.98,1.03-7.73
				C395.76,286.45,393.15,286.88,390.7,289.51z M407.56,295.36c-2.29-2.13-4.97-1.27-8.07,2.05l-5.06,5.44l6.63,6.16l5.03-5.41
				C409.78,299.64,409.52,297.19,407.56,295.36z"/>
			<path class="st1" d="M446.47,267.08c0.66,0.73,0.69,1.77-0.13,2.51c-0.55,0.5-1.29,0.63-2,0.32l-6.03-2.85l-9.96,9l2.22,6.29
				c0.24,0.74,0.04,1.46-0.52,1.96c-0.82,0.74-1.85,0.61-2.51-0.13c-0.16-0.18-0.29-0.43-0.38-0.72l-8.46-24.39
				c-0.29-0.86-0.26-1.94,0.62-2.74l0.29-0.26c0.88-0.8,1.97-0.71,2.79-0.34l23.41,10.9C446.07,266.76,446.31,266.91,446.47,267.08z
				 M435.09,265.55l-12.56-5.95l4.64,13.1L435.09,265.55z"/>
			<path class="st1" d="M466.89,220.36l14.05,18.93c0.85,1.14,0.58,2.77-0.56,3.61l-0.38,0.28c-0.7,0.52-1.56,0.62-2.32,0.39
				l-25.43-8.62l12.73,17.15c0.59,0.79,0.39,1.92-0.4,2.51c-0.79,0.59-1.9,0.42-2.49-0.37l-14.05-18.93
				c-0.85-1.14-0.63-2.77,0.51-3.62l0.41-0.31c0.7-0.52,1.58-0.59,2.45-0.34l25.29,8.57L464,222.5c-0.59-0.79-0.45-1.93,0.34-2.51
				C465.14,219.4,466.3,219.57,466.89,220.36z"/>
			<path class="st1" d="M520.11,215.68c0.51,0.85,0.33,1.87-0.62,2.44c-0.65,0.38-1.39,0.37-2.03-0.09l-5.36-4l-11.56,6.85
				l0.93,6.62c0.09,0.77-0.25,1.44-0.9,1.82c-0.95,0.57-1.93,0.23-2.44-0.62c-0.12-0.2-0.19-0.48-0.23-0.78l-3.46-25.62
				c-0.12-0.9,0.13-1.96,1.15-2.56l0.34-0.2c1.02-0.61,2.07-0.31,2.8,0.22l20.81,15.33C519.78,215.28,519.99,215.48,520.11,215.68z
				 M509.24,211.93l-11.14-8.33l1.96,13.77L509.24,211.93z"/>
			<path class="st1" d="M549.61,174.31l9.75,21.47c0.59,1.3-0.02,2.83-1.31,3.42l-0.43,0.2c-0.79,0.36-1.65,0.28-2.35-0.11
				l-23.05-13.78l8.84,19.46c0.41,0.9-0.02,1.96-0.92,2.37c-0.9,0.41-1.95,0.01-2.35-0.88l-9.76-21.47
				c-0.59-1.29-0.04-2.85,1.26-3.44l0.47-0.21c0.79-0.36,1.67-0.24,2.47,0.18l22.93,13.71l-8.82-19.42
				c-0.41-0.9-0.03-1.98,0.87-2.39C548.1,173,549.2,173.42,549.61,174.31z"/>
			<path class="st1" d="M602.78,181.59c0.3,0.94-0.1,1.9-1.16,2.23c-0.72,0.22-1.44,0.04-1.95-0.54l-4.31-5.1l-12.8,4.05l-0.59,6.65
				c-0.09,0.77-0.57,1.34-1.28,1.57c-1.05,0.33-1.93-0.22-2.23-1.16c-0.07-0.22-0.08-0.51-0.05-0.81l2.44-25.7
				c0.09-0.9,0.57-1.88,1.7-2.23l0.38-0.12c1.13-0.36,2.08,0.17,2.67,0.85l16.76,19.63C602.55,181.12,602.71,181.36,602.78,181.59z
				 M593.06,175.47l-8.95-10.63l-1.22,13.84L593.06,175.47z"/>
			<path class="st1" d="M639.55,167.75c0.84,4.39-2.47,8.32-8.48,9.48c-3.88,0.75-7.16,0.45-9.59-0.09
				c-0.63-0.12-1.26-0.68-1.39-1.38c-0.16-0.85,0.31-1.75,1.27-1.94c0.23-0.05,0.48-0.05,0.77,0.01c1.9,0.44,4.62,0.76,7.95,0.12
				c3.84-0.74,6.58-2.39,5.93-5.77c-1.1-5.74-16.98,0.61-18.82-8.94c-0.83-4.31,1.96-8.63,8.52-9.89c3.03-0.58,5.72-0.58,7.97-0.2
				c0.59,0.09,1.21,0.41,1.39,1.34c0.15,0.78-0.27,1.74-1.24,1.93c-0.19,0.04-0.44,0-0.65-0.04c-1.91-0.28-4.09-0.3-6.45,0.15
				c-3.92,0.75-6.62,2.84-6.06,5.75C621.96,165.02,637.57,157.51,639.55,167.75z"/>
			<path class="st1" d="M690.47,146.86v8.74h12.17c0.95,0,1.7,0.75,1.7,1.7c0,0.95-0.75,1.66-1.7,1.66h-12.17v10.55
				c0,0.99-0.83,1.78-1.82,1.78c-0.98,0-1.78-0.79-1.78-1.78v-24.19c0-0.99,0.8-1.82,1.78-1.82h15.37c0.95,0,1.7,0.75,1.7,1.7
				c0,0.95-0.75,1.66-1.7,1.66H690.47z"/>
			<path class="st1" d="M753.62,162.95c-1.4,8.14-7.53,13.21-15.85,11.94c-8.36-1.28-12.67-7.93-11.58-16.12
				c1.4-8.14,7.49-13.21,15.85-11.94C750.36,148.11,754.7,154.76,753.62,162.95z M750.06,162.41c0.92-6.02-2.08-11.27-8.53-12.25
				c-6.49-0.99-10.87,3.14-11.79,9.16c-0.92,6.02,2.05,11.26,8.53,12.25C744.72,172.55,749.14,168.43,750.06,162.41z"/>
			<path class="st1" d="M792.5,186.38c-0.3,0.94-1.28,1.46-2.23,1.16c-1.05-0.33-1.52-1.22-1.2-2.24l0.35-1.13
				c0.78-2.48,2.24-7.65-3.45-9.43l-7.79-2.45l-2.74,8.74c-0.3,0.94-1.32,1.45-2.27,1.15c-0.94-0.29-1.46-1.28-1.16-2.23l7.23-23.04
				c0.3-0.94,1.3-1.49,2.23-1.2l8.78,2.75c7.16,2.25,9.2,6.53,7.84,10.86c-0.91,2.9-3.4,5.18-7.07,5.27
				c3.84,2.4,2.68,7.95,2.01,10.06L792.5,186.38z M794.59,168.51c0.87-2.79-0.19-5.19-5.77-6.94l-6.63-2.08l-3,9.57l6.82,2.14
				C790.23,172.52,793.58,171.71,794.59,168.51z"/>
			<path class="st1" d="M868.85,197.76l-12.36,20.09c-0.74,1.21-2.35,1.57-3.56,0.82l-0.4-0.25c-0.74-0.45-1.15-1.22-1.23-2.01
				l-1.46-26.82l-11.2,18.21c-0.52,0.84-1.64,1.08-2.48,0.56c-0.84-0.52-1.1-1.6-0.59-2.44l12.36-20.09
				c0.74-1.21,2.34-1.62,3.55-0.88l0.44,0.27c0.74,0.45,1.13,1.25,1.23,2.15l1.46,26.68l11.17-18.17c0.52-0.84,1.63-1.14,2.47-0.62
				C869.1,195.78,869.37,196.92,868.85,197.76z"/>
			<path class="st1" d="M889.17,244.32c-0.61,0.73-1.64,0.79-2.37,0.18l-12.14-10.19c-0.76-0.63-0.86-1.75-0.22-2.51l15.41-18.38
				c0.64-0.76,1.78-0.88,2.53-0.25l12.14,10.19c0.73,0.61,0.82,1.67,0.21,2.4c-0.61,0.72-1.64,0.79-2.36,0.18l-10.75-9.02
				l-5.62,6.69l9.66,8.1c0.73,0.61,0.82,1.67,0.21,2.4c-0.61,0.72-1.64,0.79-2.37,0.18l-9.66-8.1l-5.64,6.72l10.75,9.02
				C889.69,242.53,889.78,243.59,889.17,244.32z"/>
			<path class="st1" d="M934.87,256.11l-11.96,19.34l20.8-9.37c0.78-0.37,1.67-0.25,2.24,0.4c0.68,0.77,0.63,1.86-0.16,2.45
				c-0.15,0.13-0.32,0.23-0.59,0.36l-23.01,9.83c-1.21,0.48-2.22,0.16-2.88-0.59c-0.7-0.8-0.76-2.01-0.19-2.93l10.98-18.06
				l-19.36,8.48c-0.98,0.44-2.17,0.22-2.88-0.59c-0.65-0.74-0.83-1.79-0.2-2.93l12.81-21.5c0.16-0.24,0.28-0.4,0.43-0.53
				c0.69-0.71,1.78-0.61,2.46,0.16c0.57,0.65,0.57,1.55,0.1,2.28l-12.05,19.36l20.76-9.28c0.84-0.36,1.86-0.16,2.48,0.56
				C935.27,254.29,935.34,255.33,934.87,256.11z"/>
			<path class="st1" d="M975.31,314.01l-21.09,12.16c-0.86,0.49-1.96,0.17-2.45-0.68c-0.49-0.86-0.2-1.93,0.65-2.42l21.1-12.17
				c0.85-0.49,1.97-0.22,2.46,0.63C976.47,312.39,976.17,313.52,975.31,314.01z"/>
			<path class="st1" d="M985.96,363.02c-6.04,2.73-14.41,1.57-18.29-7.02l-3.27-7.23c-0.4-0.9-0.01-1.94,0.89-2.35l21.83-9.86
				c0.9-0.41,1.98-0.03,2.39,0.87l3.27,7.23C996.66,353.25,992.04,360.27,985.96,363.02z M984.49,359.78
				c5.61-2.53,7.76-8.14,5.04-14.15l-2.34-5.18l-18.99,8.58l2.34,5.18C973.26,360.22,978.88,362.32,984.49,359.78z"/>
			<path class="st1" d="M988.26,406.21c-0.9,0.29-1.81-0.2-2.1-1.1l-4.88-15.06c-0.31-0.94,0.2-1.93,1.14-2.24l22.8-7.39
				c0.94-0.3,1.97,0.19,2.27,1.13l4.88,15.06c0.29,0.9-0.19,1.85-1.09,2.14c-0.9,0.29-1.81-0.2-2.1-1.11l-4.32-13.33l-8.3,2.69
				l3.88,11.98c0.3,0.9-0.19,1.84-1.09,2.14c-0.9,0.29-1.81-0.2-2.1-1.1l-3.88-11.98l-8.34,2.7l4.32,13.34
				C989.65,404.98,989.16,405.92,988.26,406.21z"/>
			<path class="st1" d="M998.46,448.96c-0.97,0.21-1.88-0.28-2.11-1.36c-0.16-0.73,0.09-1.44,0.72-1.9l5.48-3.81l-2.84-13.13
				l-6.57-1.21c-0.76-0.16-1.28-0.69-1.44-1.43c-0.23-1.08,0.4-1.91,1.36-2.11c0.23-0.05,0.52-0.03,0.81,0.03l25.39,4.83
				c0.89,0.17,1.81,0.74,2.06,1.9l0.09,0.39c0.25,1.16-0.36,2.06-1.1,2.58l-21.13,14.88C998.95,448.77,998.7,448.91,998.46,448.96z
				 M1005.47,439.84l11.42-7.93l-13.68-2.5L1005.47,439.84z"/>
			<path class="st1" d="M1009.41,486.85c-4.43,0.52-8.12-3.06-8.84-9.15c-0.46-3.92,0.07-7.17,0.79-9.57
				c0.16-0.61,0.77-1.2,1.48-1.29c0.86-0.1,1.72,0.43,1.84,1.42c0.03,0.24,0.02,0.47-0.07,0.76c-0.57,1.86-1.1,4.55-0.7,7.92
				c0.46,3.88,1.91,6.74,5.33,6.34c5.81-0.68,0.63-16.99,10.28-18.12c4.36-0.51,8.46,2.59,9.24,9.22c0.36,3.06,0.16,5.75-0.38,7.96
				c-0.13,0.57-0.5,1.17-1.44,1.28c-0.78,0.09-1.72-0.39-1.83-1.38c-0.02-0.2,0.03-0.44,0.09-0.65c0.41-1.88,0.6-4.05,0.31-6.44
				c-0.47-3.96-2.35-6.81-5.3-6.46C1013.42,469.5,1019.77,485.63,1009.41,486.85z"/>
			<path class="st1" d="M1005.91,512.46c-1.3,0.06-2.41-0.96-2.47-2.26c-0.06-1.26,0.96-2.37,2.26-2.43
				c1.26-0.06,2.38,0.96,2.43,2.22C1008.19,511.29,1007.18,512.4,1005.91,512.46z M1012.3,508.45l12.98-1.3l3.9-0.18
				c1.14-0.05,2.09,0.82,2.14,1.96c0.05,1.14-0.82,2.05-1.96,2.1l-3.9,0.17l-13.04-0.12c-0.68-0.01-1.17-0.42-1.2-1.25
				C1011.17,509.02,1011.63,508.52,1012.3,508.45z"/>
		</g>
	</g>
	<path class="st2" d="M431.86,458.07c-1.51-2.85-0.29-5.35-0.23-5.47c1.16-2.74,3.38-3.43,4.83-3.43c0.23,0,0.47,0,0.64,0.06
		c0.29,0,27.65,3.08,53.43-6.81c24.62-9.49,31.89-27.3,32.48-28.81c0.17-1.11,1.11-9.43-1.86-18.92l-0.64-1.98l2.04,0.41
		c0.06,0,2.5,0.41,6.23-0.06c0.7-0.06,1.4,0.12,1.98,0.58c1.63,1.28,1.92,4.37,2.39,8.61c0.41,4.07,0.87,8.67,2.62,12.16
		c5.35,6.87,5.82,18.45,5.82,18.97c0,16.41-10.83,27.06-19.9,33.12c-7.86,5.18-16.94,8.67-27,10.3c-5.65,0.93-10.88,1.34-15.71,1.34
		c-29.68,0-43.48-15.37-46.44-19.15l-0.12,0.06L431.86,458.07z"/>
	<path class="st2" d="M590.46,486.88c8.85,11.29,9.66,30.5,9.66,31.31c0,27.3-17.93,44.93-33,54.94
		c-12.98,8.56-27.99,14.32-44.7,17.05c-9.43,1.51-18.04,2.15-26.02,2.15c-49.18,0-72.05-25.38-76.94-31.6l-0.23,0.06l-0.87-1.63
		c-2.44-4.71-0.41-8.9-0.35-9.08c1.98-4.6,5.65-5.7,8.03-5.7c0.35,0,0.7,0,0.99,0.06c0.47,0.06,45.8,5.18,88.52-11.23
		c40.74-15.71,52.9-45.28,53.84-47.78c0.23-1.75,1.75-15.54-3.14-31.25l-0.99-3.26l3.38,0.58c0,0.06,4.07,0.76,10.24,0
		c1.22-0.12,2.39,0.17,3.32,0.93c2.68,2.15,3.2,7.22,3.9,14.26C586.79,473.43,587.6,481.06,590.46,486.88z"/>
	<path class="st2" d="M668.79,408.89c-9.43,1.51-18.1,2.21-26.02,2.21c-49.24,0-72.05-25.38-76.94-31.66l-0.23,0.12l-0.87-1.63
		c-2.44-4.71-0.41-8.9-0.35-9.08c1.98-4.6,5.65-5.7,8.03-5.7c0.35,0,0.7,0,0.99,0.06c0.47,0.06,45.8,5.12,88.52-11.29
		c40.74-15.66,52.85-45.22,53.84-47.72c0.23-1.8,1.75-15.6-3.14-31.25l-0.99-3.26l3.38,0.58c0,0,4.07,0.7,10.24,0
		c1.22-0.17,2.39,0.17,3.32,0.93c2.68,2.1,3.2,7.22,3.9,14.26c0.7,6.69,1.51,14.32,4.31,20.2c8.9,11.29,9.72,30.5,9.72,31.31
		c0,27.24-17.98,44.87-33.06,54.94C700.51,400.45,685.5,406.21,668.79,408.89z"/>
	<path class="st2" d="M720.07,500.84c-38.24,0-55.99-19.73-59.77-24.62l-0.17,0.12l-0.7-1.28c-1.92-3.67-0.29-6.93-0.23-7.04
		c1.51-3.55,4.31-4.48,6.17-4.48c0.29,0,0.58,0,0.81,0.06c0.35,0.06,35.62,4.02,68.79-8.73c31.66-12.16,41.09-35.15,41.79-37.07
		c0.23-1.4,1.4-12.11-2.39-24.33l-0.81-2.56l2.62,0.52c0.06,0,3.2,0.52,7.97-0.06c0.93-0.06,1.86,0.17,2.56,0.76
		c2.1,1.63,2.5,5.59,3.08,11.06c0.52,5.24,1.16,11.17,3.32,15.71c6.93,8.79,7.51,23.69,7.57,24.33c0,21.19-13.97,34.86-25.67,42.66
		c-10.07,6.69-21.77,11.12-34.75,13.27C732.99,500.32,726.24,500.84,720.07,500.84z"/>
	<path class="st2" d="M889.96,535.94c0,27.24-17.93,44.93-33,54.94c-12.92,8.56-27.99,14.32-44.7,16.99
		c-9.37,1.51-18.04,2.21-26.02,2.21c-49.18,0-72.05-25.38-76.88-31.66l-0.29,0.12l-0.87-1.63c-2.44-4.71-0.41-8.9-0.29-9.08
		c1.92-4.6,5.59-5.7,7.97-5.7c0.35,0,0.7,0,0.99,0.06c0.47,0.06,45.86,5.18,88.52-11.29c40.74-15.66,52.9-45.22,53.84-47.72
		c0.23-1.8,1.8-15.54-3.08-31.25l-1.05-3.26l3.38,0.58c0.06,0,4.07,0.7,10.24,0c1.22-0.17,2.39,0.17,3.32,0.93
		c2.68,2.1,3.2,7.22,3.96,14.26c0.7,6.69,1.46,14.32,4.31,20.2C889.14,515.92,889.96,535.12,889.96,535.94z"/>
	<polygon class="st3" points="566.77,376.82 572.43,373.76 601.75,381.16 631.11,383.13 652.85,381.16 677,373.76 698.14,360.66 
		712.78,344.45 721.64,326.78 725.81,310.07 734.42,306.74 741.24,320.13 744.23,337.18 740.33,356.44 730.03,375.23 707.04,393.69 
		678.06,405.01 644.92,409.47 619.07,406.98 590.88,397.31 566.77,379.19 	"/>
	<polygon class="st3" points="711.94,575.8 717.61,572.75 746.93,580.15 776.28,582.11 798.03,580.15 822.18,572.75 843.32,559.65 
		857.96,543.44 866.82,525.76 870.99,509.06 879.6,505.73 886.42,519.12 889.41,536.16 885.51,555.43 875.21,574.22 852.22,592.67 
		823.24,604 790.09,608.45 764.25,605.97 736.06,596.3 711.94,578.18 	"/>
	<polygon class="st3" points="420.97,558.05 426.63,555 455.96,562.4 485.31,564.36 507.05,562.4 531.21,555 552.34,541.9 
		566.99,525.69 575.84,508.01 580.02,491.31 588.63,487.98 595.45,501.36 598.43,518.41 594.54,537.67 584.23,556.47 561.25,574.92 
		532.27,586.25 499.12,590.7 473.28,588.22 445.09,578.55 420.97,560.43 	"/>
	<path d="M736.77,305.64c-2.79-5.88-3.61-13.5-4.31-20.2c-0.7-7.04-1.22-12.16-3.9-14.26c-0.93-0.76-2.1-1.11-3.32-0.93
		c-6.17,0.7-10.24,0-10.24,0l-3.38-0.58l0.99,3.26c4.89,15.66,3.38,29.45,3.14,31.25c-0.99,2.5-13.1,32.07-53.84,47.72
		c-42.72,16.41-88.06,11.35-88.52,11.29c-0.29-0.06-0.64-0.06-0.99-0.06c-2.39,0-6.05,1.11-8.03,5.7c-0.06,0.17-2.1,4.37,0.35,9.08
		l0.87,1.63l0.23-0.12c4.89,6.29,27.7,31.66,76.94,31.66c7.92,0,16.59-0.7,26.02-2.21c16.7-2.68,31.72-8.44,44.64-16.99
		c15.07-10.07,33.06-27.7,33.06-54.94C746.49,336.14,745.68,316.93,736.77,305.64z M575.21,367.51c2.97,0.23,8.56,0.58,16.01,0.58
		c17.58,0,45.4-1.98,72.23-12.28c37.54-14.49,51.62-39.93,55.29-47.96l5.59,3.9c-1.34,7.28-10.24,45.16-52.03,61.63
		c-42.43,16.76-88.81,1.63-97.08-1.34V367.51z M711.16,388.4c-12.45,8.26-26.95,13.79-43.07,16.41c-62.91,10.24-91.72-19.03-98.3-27
		c1.16-0.58,2.5-1.22,3.67-1.98c7.62,2.74,55.93,18.92,100.34,1.4c44.17-17.4,53.37-57.79,54.65-65.07l5.94-2.91
		c7.22,10.42,7.97,27.7,7.97,27.76C742.36,362.39,725.36,378.97,711.16,388.4z"/>
	<path d="M880.29,504.63c-2.85-5.88-3.61-13.5-4.31-20.2c-0.76-7.04-1.28-12.16-3.96-14.26c-0.93-0.76-2.1-1.11-3.32-0.93
		c-6.17,0.7-10.19,0-10.24,0l-3.38-0.58l1.05,3.26c4.89,15.71,3.32,29.45,3.08,31.25c-0.93,2.5-13.1,32.07-53.84,47.72
		c-42.66,16.47-88.06,11.35-88.52,11.29c-0.29-0.06-0.64-0.06-0.99-0.06c-2.39,0-6.05,1.11-7.97,5.7c-0.12,0.17-2.15,4.37,0.29,9.08
		l0.87,1.63l0.29-0.12c4.83,6.29,27.7,31.66,76.88,31.66c7.97,0,16.65-0.7,26.02-2.21c16.7-2.68,31.78-8.44,44.7-16.99
		c15.07-10.01,33-27.7,33-54.94C889.96,535.12,889.14,515.92,880.29,504.63z M718.73,566.49c2.91,0.23,8.5,0.58,15.95,0.58
		c17.58,0,45.4-1.98,72.23-12.28c37.6-14.49,51.68-39.93,55.29-47.96l5.59,3.9c-1.34,7.28-10.24,45.16-52.03,61.63
		c-42.43,16.76-88.76,1.63-97.02-1.28V566.49z M854.63,587.39c-12.4,8.26-26.89,13.79-43.01,16.41c-62.97,10.24-91.72-19.03-98.3-27
		c1.16-0.58,2.5-1.22,3.61-1.98c7.62,2.79,55.99,18.92,100.34,1.4c44.23-17.4,53.37-57.79,54.65-65.07l5.94-2.91
		c7.28,10.42,7.97,27.7,7.97,27.82C885.82,561.37,868.89,577.96,854.63,587.39z"/>
	<polygon class="st3" points="661.02,473.94 665.44,471.55 688.33,477.33 711.25,478.87 728.23,477.33 747.09,471.55 763.59,461.33 
		775.02,448.67 781.93,434.87 785.19,421.83 791.92,419.23 797.24,429.68 799.57,442.99 796.53,458.03 788.48,472.7 770.54,487.11 
		747.91,495.95 722.03,499.43 701.86,497.49 679.85,489.94 661.02,475.8 	"/>
	<path d="M793.11,418.9c-2.15-4.54-2.79-10.48-3.32-15.71c-0.58-5.47-0.99-9.43-3.08-11.06c-0.7-0.58-1.63-0.81-2.56-0.76
		c-4.77,0.58-7.92,0.06-7.97,0.06l-2.62-0.52l0.81,2.56c3.78,12.22,2.62,22.93,2.39,24.33c-0.7,1.92-10.13,24.91-41.79,37.07
		c-33.17,12.75-68.44,8.79-68.79,8.73c-0.23-0.06-0.52-0.06-0.81-0.06c-1.86,0-4.66,0.93-6.17,4.48c-0.06,0.12-1.69,3.38,0.23,7.04
		l0.7,1.28l0.17-0.12c3.78,4.89,21.53,24.62,59.77,24.62c6.17,0,12.92-0.52,20.2-1.69c12.98-2.15,24.68-6.58,34.75-13.27
		c11.7-7.8,25.67-21.48,25.67-42.66C800.62,442.59,800.04,427.69,793.11,418.9z M667.57,466.97c2.33,0.17,6.63,0.47,12.4,0.47
		c13.68,0,35.33-1.57,56.16-9.6c29.16-11.23,40.1-30.96,42.95-37.19l4.37,2.97c-1.05,5.65-7.97,35.09-40.45,47.96
		c-32.94,12.98-68.97,1.22-75.43-1.05V466.97z M773.2,483.21c-9.66,6.4-20.89,10.71-33.47,12.75
		c-48.89,7.92-71.24-14.78-76.36-21.01c0.93-0.41,1.98-0.93,2.85-1.51c5.88,2.15,43.48,14.72,77.93,1.11
		c34.34-13.56,41.44-44.93,42.49-50.58l4.6-2.27c5.65,8.09,6.17,21.53,6.23,21.59C797.47,462.96,784.26,475.88,773.2,483.21z"/>
	<polygon class="st3" points="433.56,457.43 436.97,455.59 454.64,460.05 472.32,461.23 485.42,460.05 499.97,455.59 512.7,447.7 
		521.52,437.93 526.86,427.28 529.37,417.22 534.56,415.21 538.67,423.28 540.46,433.55 538.12,445.15 531.91,456.47 518.06,467.59 
		500.6,474.41 480.64,477.1 465.07,475.6 448.09,469.77 433.56,458.86 	"/>
	<path d="M535.75,414.42c-1.75-3.49-2.21-8.09-2.62-12.16c-0.47-4.25-0.76-7.33-2.39-8.61c-0.58-0.47-1.28-0.64-1.98-0.58
		c-3.72,0.47-6.17,0.06-6.23,0.06l-2.04-0.41l0.64,1.98c2.97,9.49,2.04,17.81,1.86,18.92c-0.58,1.51-7.86,19.32-32.48,28.81
		c-25.78,9.89-53.14,6.81-53.43,6.81c-0.17-0.06-0.41-0.06-0.64-0.06c-1.46,0-3.67,0.7-4.83,3.43c-0.06,0.12-1.28,2.62,0.23,5.47
		l0.52,0.99l0.12-0.06c2.97,3.78,16.76,19.15,46.44,19.15c4.83,0,10.07-0.41,15.71-1.34c10.07-1.63,19.15-5.12,27-10.3
		c9.08-6.05,19.9-16.7,19.9-33.12C541.57,432.87,541.1,421.28,535.75,414.42z M438.2,451.78c1.75,0.17,5.12,0.41,9.6,0.41
		c10.65,0,27.41-1.22,43.65-7.45c22.64-8.73,31.14-24.1,33.35-28.93l3.38,2.33c-0.81,4.37-6.17,27.24-31.43,37.25
		c-25.61,10.07-53.6,0.93-58.55-0.81V451.78z M520.27,464.41c-7.51,5.01-16.24,8.32-26.02,9.89c-38.01,6.17-55.35-11.47-59.36-16.3
		c0.76-0.35,1.57-0.76,2.21-1.16c4.6,1.63,33.81,11.41,60.59,0.81c26.71-10.48,32.19-34.86,33-39.29l3.55-1.75
		c4.42,6.29,4.83,16.7,4.83,16.76C539.06,448.7,528.82,458.71,520.27,464.41z"/>
	<path d="M590.46,486.88c-2.85-5.82-3.67-13.44-4.37-20.2c-0.7-7.04-1.22-12.11-3.9-14.26c-0.93-0.76-2.1-1.05-3.32-0.93
		c-6.17,0.76-10.24,0.06-10.24,0l-3.38-0.58l0.99,3.26c4.89,15.71,3.38,29.51,3.14,31.25c-0.93,2.5-13.1,32.07-53.84,47.78
		c-42.72,16.41-88.06,11.29-88.52,11.23c-0.29-0.06-0.64-0.06-0.99-0.06c-2.39,0-6.05,1.11-8.03,5.7c-0.06,0.17-2.1,4.37,0.35,9.08
		l0.87,1.63l0.23-0.06c4.89,6.23,27.76,31.6,76.94,31.6c7.97,0,16.59-0.64,26.02-2.15c16.7-2.74,31.72-8.5,44.7-17.05
		c15.07-10.01,33-27.65,33-54.94C600.12,517.37,599.3,498.17,590.46,486.88z M428.89,548.74c2.91,0.23,8.5,0.64,15.95,0.64
		c17.58,0,45.4-2.04,72.23-12.34c37.54-14.43,51.62-39.87,55.29-47.96l5.59,3.9c-1.34,7.28-10.24,45.16-52.03,61.69
		c-42.43,16.7-88.81,1.63-97.02-1.34V548.74z M564.79,569.7c-12.4,8.26-26.89,13.74-43.07,16.35
		c-62.91,10.24-91.72-19.03-98.3-27.01c1.16-0.52,2.56-1.22,3.67-1.98c7.62,2.79,55.99,18.97,100.34,1.46
		c44.23-17.46,53.37-57.85,54.65-65.13l5.94-2.91c7.28,10.42,7.97,27.7,7.97,27.82C595.98,543.62,579.05,560.21,564.79,569.7z"/>
</g>
</svg>
